Coordinates
version=1
nRows=13
nColumns=38
inDegrees=no

Units are S.I. units (second, meters, Newtons, ...)
If the header above contains a line with 'inDegrees', this indicates whether rotational values are in degrees (yes) or radians (no).

endheader
time	pelvis_tilt	pelvis_list	pelvis_rotation	pelvis_tx	pelvis_ty	pelvis_tz	hip_flexion_r	hip_adduction_r	hip_rotation_r	knee_angle_r	ankle_angle_r	subtalar_angle_r	mtp_angle_r	hip_flexion_l	hip_adduction_l	hip_rotation_l	knee_angle_l	ankle_angle_l	subtalar_angle_l	mtp_angle_l	lumbar_extension	lumbar_bending	lumbar_rotation	arm_flex_r	arm_add_r	arm_rot_r	elbow_flex_r	pro_sup_r	wrist_flex_r	wrist_dev_r	arm_flex_l	arm_add_l	arm_rot_l	elbow_flex_l	pro_sup_l	wrist_flex_l	wrist_dev_l
21.13	0.0331498	1.49291	1.63974	0.377383	1.54355	1.06583	0.0941355	-0.0354236	0.00451714	0.299354	-0.155293	0	0	0.125159	-0.119148	-0.293818	0.506706	-0.142761	0	0	-0.117294	-0.0016465	0.033147	-0.119608	-0.535593	0.40996	1.16359	1.15693	0	0	-0.20702	-0.408952	0.247861	1.1717	1.5151	0	0
21.14	0.0333167	1.49487	1.6377	0.377031	1.54398	1.06599	0.0919044	-0.0354652	0.00629918	0.300054	-0.154548	0	0	0.121278	-0.118857	-0.295859	0.505218	-0.142369	0	0	-0.117542	-0.00247268	0.0346214	-0.119011	-0.537269	0.409546	1.16617	1.15315	0	0	-0.20801	-0.409586	0.246452	1.17733	1.51076	0	0
21.15	0.0383265	1.49555	1.63263	0.376542	1.54465	1.06604	0.0898918	-0.0352232	0.00524124	0.299198	-0.15404	0	0	0.118892	-0.118653	-0.296085	0.503643	-0.142014	0	0	-0.115499	-0.0031007	0.0345869	-0.118602	-0.538707	0.409545	1.16843	1.15108	0	0	-0.209475	-0.410653	0.24513	1.18296	1.50601	0	0
21.16	0.0385563	1.49608	1.63217	0.376048	1.54527	1.06609	0.088242	-0.0355561	0.00445002	0.298353	-0.153877	0	0	0.116441	-0.117828	-0.296129	0.501449	-0.141725	0	0	-0.113352	-0.00410516	0.0344642	-0.117714	-0.539883	0.408914	1.17104	1.14886	0	0	-0.210805	-0.411755	0.243344	1.18909	1.50048	0	0
21.17	0.0329224	1.49726	1.63678	0.375628	1.54574	1.06622	0.0866047	-0.0364493	0.00463635	0.298486	-0.15376	0	0	0.112932	-0.116504	-0.296841	0.4986	-0.141642	0	0	-0.112453	-0.00548815	0.0349548	-0.115963	-0.541471	0.408351	1.17464	1.14626	0	0	-0.211325	-0.413053	0.241605	1.19585	1.49451	0	0
21.18	0.0233858	1.49896	1.64488	0.37525	1.54613	1.06641	0.084814	-0.0376773	0.00504871	0.29929	-0.153527	0	0	0.108569	-0.114857	-0.298013	0.495156	-0.141873	0	0	-0.112444	-0.00701499	0.0358131	-0.113518	-0.543364	0.407725	1.17878	1.14355	0	0	-0.211095	-0.414494	0.240111	1.20277	1.48825	0	0
21.19	0.0197724	1.4997	1.64874	0.374733	1.54669	1.06653	0.083234	-0.0385958	0.00288315	0.299013	-0.153506	0	0	0.105435	-0.113495	-0.297451	0.491667	-0.142158	0	0	-0.110835	-0.00815266	0.0353626	-0.11167	-0.544572	0.406537	1.18226	1.1405	0	0	-0.210828	-0.416145	0.239094	1.2092	1.48127	0	0
21.2	0.0209747	1.5003	1.64838	0.374132	1.5472	1.0666	0.0814774	-0.0389918	0.00189276	0.298119	-0.153597	0	0	0.102733	-0.112354	-0.296048	0.488385	-0.142145	0	0	-0.109152	-0.00874804	0.0342891	-0.109115	-0.545816	0.405446	1.18548	1.13712	0	0	-0.209856	-0.417946	0.238609	1.21536	1.4734	0	0
21.21	0.0298424	1.50134	1.641	0.373439	1.54764	1.06669	0.0791809	-0.038953	-0.000443114	0.296926	-0.154006	0	0	0.0999191	-0.111795	-0.294079	0.485511	-0.141742	0	0	-0.108017	-0.00849102	0.0325703	-0.105518	-0.547911	0.405108	1.18888	1.13504	0	0	-0.208012	-0.419747	0.23854	1.22124	1.46433	0	0
21.22	0.0366906	1.50265	1.63497	0.372852	1.54808	1.06681	0.0769795	-0.0391248	-0.00283476	0.296368	-0.154547	0	0	0.0964699	-0.111246	-0.2932	0.482259	-0.141328	0	0	-0.107325	-0.00836661	0.0313071	-0.101234	-0.549995	0.405478	1.19215	1.13387	0	0	-0.205471	-0.421925	0.239187	1.22669	1.45569	0	0
21.23	0.0414879	1.50365	1.63051	0.372325	1.54851	1.06691	0.0752377	-0.0392617	-0.00301049	0.296166	-0.154805	0	0	0.0931182	-0.110501	-0.292749	0.478673	-0.141058	0	0	-0.106393	-0.00845364	0.0306058	-0.0967877	-0.551648	0.406412	1.1947	1.13248	0	0	-0.202337	-0.424066	0.240491	1.23111	1.44794	0	0
21.24	0.0456254	1.50428	1.62657	0.371816	1.54891	1.06696	0.0739039	-0.0392796	-0.0016442	0.295967	-0.154792	0	0	0.0901064	-0.109628	-0.292391	0.475131	-0.140764	0	0	-0.105402	-0.00860228	0.0300364	-0.0923814	-0.552633	0.407624	1.19663	1.12927	0	0	-0.198688	-0.426001	0.242483	1.23421	1.44004	0	0
21.25	0.0516924	1.50479	1.62067	0.37133	1.54926	1.06701	0.0728602	-0.039137	-4.57007e-05	0.295955	-0.154728	0	0	0.0872718	-0.108918	-0.291972	0.471795	-0.140271	0	0	-0.104501	-0.00850521	0.029468	-0.0877452	-0.55316	0.409671	1.1978	1.12429	0	0	-0.194366	-0.427828	0.245759	1.23558	1.43226	0	0
